<svg id="Camada_1" data-name="Camada 1" xmlns="http://www.w3.org/2000/svg" viewBox="0 0 2046.4 96.1"><defs><style>.cls-1{fill:#d75e14;}.cls-2{fill:#fff;}.cls-3{fill:#96bd14;}</style></defs><path class="cls-1" d="M-1748.76,17.8c.51-.54.81-.14,1,.28.07.16-.18.44-.28.67-.21-.36-.43-.71-.64-1.06Z" transform="translate(1748.76 -2.56)"/><path class="cls-2" d="M248.67,46.37l-14.11,9.55a19.53,19.53,0,0,1,3.14.21c4.22,1.12,8.05,6.07,6.6,11a21.41,21.41,0,0,0-1.26,6,3.19,3.19,0,0,0,4.41,2.73c.52-.25.32-.62.27-1-1.35-8.87.34-17.08,5.84-24.24,3.83-5,9.91-6.05,15.33-4.44a6.39,6.39,0,0,1,4.67,6.38c.15,4.91-2.24,8.46-6,11.23a23,23,0,0,1-9.55,4c-.55.1-.93.21-.94.82a24.93,24.93,0,0,0,0,4,5.59,5.59,0,0,0,7.17,4.63,16.76,16.76,0,0,0,8.69-6,5.39,5.39,0,0,0,.74-2.47c1.34-6.16,2.63-12.32,3.95-18.48.21-1,.07-1.5-1.06-1.3-.94.16-1-.25-.91-1.1.19-1.22.52-2.08,2-1.76.83.18.91-.45,1-1q.83-3.9,1.64-7.78c.16-.75.38-1.32,1.34-1.43,2.86-.3,5.7-.69,8.54-1.1.86-.13,1.14-.09.89.94-.76,3.12-1.34,6.29-2.06,9.42-.19.84,0,1,.78,1s1.75,0,2.62,0c.6,0,.73.22.67.78-.24,2-.29,2.09-2.38,2.09-2.39,0-2.42,0-2.92,2.34-1.49,7-3,13.93-4.42,20.91-.61,3,.47,4.08,3.62,3.78a4.34,4.34,0,0,1,.51,0c-1.2,5.11-4.88,7.44-9.83,6.2-2.82-.7-4.22-2.71-4.73-5.47-.05-.28.07-.69-.24-.83s-.6.27-.83.48a20.62,20.62,0,0,1-11.78,6c-4,.5-7.56-.21-10.26-3.46-.49-.58-.78-.41-1.24,0-.79.68-1.62,1.32-2.47,1.92-3,2.16-6.29,2.13-9.57.78-3-1.24-4-3.76-4.06-6.84,0-2.47.75-4.8,1.26-7.17a7.36,7.36,0,0,0-.07-3.87,3.22,3.22,0,0,0-3.57-2.41,7.69,7.69,0,0,0-3.55,1.19,1.66,1.66,0,0,0-.81,1.22c-1.24,6-2.55,11.9-3.78,17.86-.16.78-.44,1-1.17.94-2.79,0-5.59,0-8.38,0-.94,0-1-.23-.84-1.12q5.07-23.64,10.06-47.3c.15-.71.37-1.09,1.22-1.19,3.19-.37,6.36-.85,9.73-1.32l-5.35,25.06.24.18L231,54.09l9.5-7.37a2,2,0,0,1,1.26-.6c2.3,0,4.59,0,6.89,0Zm20.59,7a6.32,6.32,0,0,0-.25-2.07c-.57-1.84-1.87-2.47-3.62-1.71a5.84,5.84,0,0,0-2.31,1.87c-2.75,3.55-4,7.73-5.16,12-.26,1,.13,1,.85.94C264.19,64.08,269.24,58.79,269.26,53.4Z" transform="translate(1748.76 -2.56)"/><path class="cls-3" d="M104.29,53.76a10.76,10.76,0,0,1-3.79,5.64c-.75.54-.59,1.3-.65,2a28.47,28.47,0,0,1-4.73,14.06c-2.46,3.55-5.6,6.28-10,6.89-4,.54-9-.43-11.09-4.14a32,32,0,0,1-1.26-3.11c-1,.89-1.84,1.8-2.82,2.58a19.2,19.2,0,0,1-15.56,4C51.51,81.23,49.94,79.73,48,76c-.42-.05-.56.33-.78.56-3.37,3.58-7.61,5.2-12.4,5.67a20,20,0,0,1-8.26-.68A14,14,0,0,1,17,67.27c.33-7.86,4.9-13.46,12.59-15.47.08,0,.13-.1.21-.16,0-.41-.36-.44-.58-.59-4.17-2.73-6.61-6.42-6.13-11.57.45-4.95,3.3-8.3,7.65-10.28A19.53,19.53,0,0,1,47.07,29c4.58,2,6.48,6.67,4.88,11.42-1.25,3.73-5.43,4.51-8.54,1.62a7.84,7.84,0,0,0,3-7.5c-.36-3.16-3.07-4.65-6.75-3.82C33.55,32.13,30.83,39,34.1,44.69c1.59,2.76,4.11,4.91,8.06,6.84-.81.4-1.53.74-2.25,1.11-4.24,2.2-7.86,5-9.58,9.7a10.52,10.52,0,0,0,3.42,12.17c3.72,2.72,10.38,1.26,13.2-1.83a1.48,1.48,0,0,0,.26-1.21c-.09-5.63.67-11.11,3.24-16.2,3.47-6.88,9-10.23,16.82-9.76a10.84,10.84,0,0,1,3.93.86,4.57,4.57,0,0,1,2.45,5.78c-.12.36-.2.54-.61.4a6,6,0,0,0-3.41.1c0-.62.09-1.2.1-1.78a2.3,2.3,0,0,0-2.62-2.64,6.15,6.15,0,0,0-4.77,2.6c-2.88,3.55-4.16,7.78-4.92,12.19a20.89,20.89,0,0,0,0,8.94,4.78,4.78,0,0,0,5.37,3.91,15.82,15.82,0,0,0,9-3.71,1.77,1.77,0,0,0,.58-1.62A36.44,36.44,0,0,1,74.93,56.4c2.53-5.82,6.63-9.83,13-11.19a13.41,13.41,0,0,1,7.95.44c1.16.46,2.39,1,2.37,2.61s-1.08,2.37-2.35,3c-.5.24-.76.23-1.11-.33-1.18-1.92-3.07-2.37-5.2-1.32a8.7,8.7,0,0,0-3.65,3.8,34.68,34.68,0,0,0-3.67,12.29A30,30,0,0,0,82,70.52c.06,2.26,1.11,4,2.83,4.58a4.79,4.79,0,0,0,5.82-1.69A20.45,20.45,0,0,0,94,65.28c.29-1.22.39-2.49.64-3.72.09-.47,0-.74-.4-.94-1.5-.7-1.65-2-1.49-3.44.27-2.46,2.71-4.82,4.91-4.82,1.67,0,1.89.2,2.51,2.32A4.32,4.32,0,0,0,102,53.15Z" transform="translate(1748.76 -2.56)"/><path class="cls-3" d="M157.29,92.77H296.06c1.64,0,1.64,0,1.55,1.65a4.35,4.35,0,0,1-4.19,4.22c-.34,0-.7,0-1,0H15.74c-1.8,0-1.8,0-1.63-1.82.25-2.58,1.94-4.06,4.67-4.06Z" transform="translate(1748.76 -2.56)"/><path class="cls-2" d="M104.29,53.76,102,53.15c-3-2.51-3.75-5.48-2.48-9.49s4-7.1,7.32-9.62C111.86,30.17,117.51,28,124,28.3c3.53.18,3.58.22,3.58,3.66V70c.6-.32.67-.85.85-1.31Q135.74,49.53,143,30.34a1.79,1.79,0,0,1,2-1.42c2.92.1,5.85.07,8.77,0,1,0,1.07.31.89,1.15q-5.33,24.72-10.6,49.45c-.63,3-.64,3-3.7,3-2,0-4.1,0-6.15,0-.85,0-1.19,0-1-1.1,2.2-10.15,4.31-20.31,6.45-30.47.07-.34.1-.68.16-1.13a2.49,2.49,0,0,0-.84,1.34c-4,10-8.06,20-12,30A1.81,1.81,0,0,1,125,82.53c-2.4-.09-4.8-.08-7.2,0-1,0-1.21-.32-1.21-1.26,0-9.12,0-18.24,0-27.36V52.3a2,2,0,0,0-.79,1.45q-4.31,13.8-8.56,27.63c-.27.86-.6,1.19-1.52,1.14-1.47-.08-3,0-4.57,0C106.58,65.83,112,49.26,117.4,32.61c-10.45,2.74-13.66,14.17-10.84,21.2C105.79,54.15,105,53.64,104.29,53.76ZM150,30.65c-.74,0-1.48,0-2.23,0-.44,0-.69.13-.51.6A11.37,11.37,0,0,0,151,36.51c.47.37.64.17.73-.37.14-.9.36-1.79.55-2.68C152.86,30.65,152.86,30.65,150,30.65Z" transform="translate(1748.76 -2.56)"/><path class="cls-2" d="M185.47,79.34c-2.85,2-5.53,3.62-8.91,3.1-3.23-.5-5.91-1.74-7-5.3-.92,1-1.68,1.85-2.52,2.64a10.56,10.56,0,0,1-10.21,2.88c-3.66-.87-6-3.77-6.16-8.08-.17-6.51.74-12.87,3.77-18.74,3.1-6,8-9.42,14.86-9.58a7.84,7.84,0,0,1,5.06,1.66c.15-.1.27-.13.27-.18.09-1.33.72-1.72,2.09-1.66,2.87.14,5.74,0,8.72,0-1,4.83-2,9.54-3,14.25-.79,3.79-1.61,7.57-2.36,11.36-.26,1.33-.47,2.74.9,3.68a5.43,5.43,0,0,0,5.12-.2c.38-.29.37-.66.45-1q2.72-12.75,5.44-25.5c.53-2.55.5-2.56,3.14-2.56h7.79c-.23,1.17-.45,2.25-.71,3.55,1.17-.72,2.13-1.38,3.16-1.93a10.35,10.35,0,0,1,6.23-1.48c2,.23,3.56,1.05,4.14,3A5.57,5.57,0,0,1,214,55.22a4.62,4.62,0,0,1-2.7,1.18c-2.21.24-3.14-.44-3.57-2.63s-.93-2.54-3-1.88a4.89,4.89,0,0,0-3.84,3.91c-1.72,8.64-3.63,17.26-5.42,25.89-.17.82-.57.82-1.16.82-2.8,0-5.59-.05-8.38,0-1,0-1.1-.32-.84-1.14C185.22,80.86,185.28,80.29,185.47,79.34Zm-25.07-8a8,8,0,0,0,.19,2.35A3.84,3.84,0,0,0,167,76.05a6.9,6.9,0,0,0,2.69-4.27c1.22-6.35,2.62-12.66,4-19a1.54,1.54,0,0,0-1.09-2.07,4.85,4.85,0,0,0-5.15.57,9.91,9.91,0,0,0-2.34,2.62C161.74,59.24,160.69,65.18,160.4,71.31Z" transform="translate(1748.76 -2.56)"/><path class="cls-3" d="M184.74,28.39c-.15-4.1-.27-7.92-.42-11.73q-.19-4.83-.46-9.64a1.42,1.42,0,0,1,1-1.59,31.36,31.36,0,0,1,7.58-2.32c1-.18,1,.32,1,1,.17,4.3.31,8.61.54,12.91a2.91,2.91,0,0,1-.85,2.4C190.33,22.28,187.63,25.25,184.74,28.39Z" transform="translate(1748.76 -2.56)"/><path class="cls-3" d="M186.87,29.69c2.12-2.31,4.38-4.54,6.35-7a6.93,6.93,0,0,1,6.3-2.88A101.18,101.18,0,0,0,210,19.37c1-.07,1.28.27,1.15,1.23a30.94,30.94,0,0,1-1.81,7.7,1.11,1.11,0,0,1-1.14.82c-6.87.25-13.74.54-20.61.82A.62.62,0,0,1,186.87,29.69Z" transform="translate(1748.76 -2.56)"/><path class="cls-3" d="M181.5,7.54c.13,3.23.24,6.22.36,9.2q.27,6.72.55,13.44c0,.34.11.63-.19.95-2.1,2.26-4.18,4.54-6.36,6.91a28.27,28.27,0,0,1-1-5.38c-.62-5.25-.77-10.5.67-15.67A17.5,17.5,0,0,1,181.5,7.54Z" transform="translate(1748.76 -2.56)"/><path class="cls-3" d="M177.61,39.72c2.16-2.34,4.18-4.5,6.15-6.71a1.72,1.72,0,0,1,1.38-.54c5-.19,10.09-.42,15.14-.58,2.33-.07,4.67,0,7.06,0a15.5,15.5,0,0,1-5,4.68A27.36,27.36,0,0,1,191.21,40,49.77,49.77,0,0,1,177.61,39.72Z" transform="translate(1748.76 -2.56)"/><path class="cls-3" d="M209.79,4.79a52.39,52.39,0,0,1,1.32,8.49c0,.56,0,1.13,0,1.7.1,2,.11,2-1.85,2.06-3.56.14-7.12.33-10.68.49a1.92,1.92,0,0,1-.47-.11C202,13.23,205.79,9.12,209.79,4.79Z" transform="translate(1748.76 -2.56)"/><path class="cls-3" d="M208,3.13,196.27,15.86c-.17-4.55-.33-8.83-.49-13.19A58.1,58.1,0,0,1,208,3.13Z" transform="translate(1748.76 -2.56)"/><path class="cls-3" d="M168.55,38.42a30,30,0,0,1-12.3.34c-1-.21-1.39-.57-1.12-1.69.68-2.73,1.21-5.5,1.79-8.25a1,1,0,0,1,.39-.76Z" transform="translate(1748.76 -2.56)"/><path class="cls-3" d="M170.19,36.62c-1.57-1.44-3-2.76-4.44-4.09a1.06,1.06,0,0,1-.46-.74c-.28-4.68-.56-9.36-.85-14.28a10.52,10.52,0,0,1,4.27,4.83c1.8,4,2,8.15,1.71,12.4C170.38,35.3,170.28,35.86,170.19,36.62Z" transform="translate(1748.76 -2.56)"/><path class="cls-3" d="M162.77,29.77c-1.45-1.33-2.59-2.39-3.75-3.43-1-.88-.61-2.12-.74-3.18-.28-2.33-.29-4.69-.49-7,0-.59.1-.69.59-.63l.13,0c4,.86,3.45,0,3.65,4C162.32,22.82,162.55,26.11,162.77,29.77Z" transform="translate(1748.76 -2.56)"/><path class="cls-3" d="M146.35,18l1.17,1.08,8.35,7.68c-.38.54-.85.32-1.24.32-2.44,0-4.89,0-7.33,0-.51,0-1,0-1.06-.66A38,38,0,0,1,146.35,18Z" transform="translate(1748.76 -2.56)"/><path class="cls-3" d="M148,16.17a31,31,0,0,1,6.52-.75c.58,0,.84.1.88.76.13,2.3.34,4.6.55,7.29Z" transform="translate(1748.76 -2.56)"/></svg>